<?xml version="1.0" encoding="utf-8"?>
<!-- Generator: Adobe Illustrator 24.0.0, SVG Export Plug-In . SVG Version: 6.00 Build 0)  -->
<svg version="1.1" id="Layer_1" xmlns="http://www.w3.org/2000/svg" xmlns:xlink="http://www.w3.org/1999/xlink" x="0px" y="0px"
	 viewBox="0 0 1440 396" style="enable-background:new 0 0 1440 396;" xml:space="preserve">
<style type="text/css">
	.st0{fill:#008296;}
</style>
<path class="st0" d="M0,357.9l48,6.6c48,7.1,144,19.5,240,26.6c96,6.6,192,6.6,288,0c96-7.1,315-7.3,411-74.1
	c89-61.4,201.6-45.2,261.8-78.2c19-10.4,39.3-18.1,60.6-21.9c29.7-5.3,58.9-6.7,68.8-7.9c20.5-2.5,41.3-2.3,61.8,0v-50V0h-48
	c-48,0-144,0-240,0S960,0,864,0S672,0,576,0S384,0,288,0S96,0,48,0H0V357.9z"/>
</svg>
